<?xml version="1.0" encoding="UTF-8" standalone="no" ?>
<!DOCTYPE svg PUBLIC "-//W3C//DTD SVG 1.1//EN" "http://www.w3.org/Graphics/SVG/1.1/DTD/svg11.dtd">
<svg xmlns="http://www.w3.org/2000/svg" xmlns:xlink="http://www.w3.org/1999/xlink" version="1.1" width="1080" height="1080" viewBox="0 0 1080 1080" xml:space="preserve">
<desc>Created with Fabric.js 5.2.4</desc>
<defs>
</defs>
<g transform="matrix(1 0 0 1 540 540)" id="17e86956-c397-4c3d-b100-28ece5eaf7ff"  >
<rect style="stroke: none; stroke-width: 1; stroke-dasharray: none; stroke-linecap: butt; stroke-dashoffset: 0; stroke-linejoin: miter; stroke-miterlimit: 4; fill: rgb(255,255,255); fill-rule: nonzero; opacity: 1; visibility: hidden;" vector-effect="non-scaling-stroke"  x="-540" y="-540" rx="0" ry="0" width="1080" height="1080" />
</g>
<g transform="matrix(1 0 0 1 540 540)" id="a4011091-2530-4c67-9c66-9807553ab0be"  >
</g>
<g transform="matrix(6.1 0 0 6.1 540 540)"  >
<path style="stroke: none; stroke-width: 1; stroke-dasharray: none; stroke-linecap: butt; stroke-dashoffset: 0; stroke-linejoin: miter; stroke-miterlimit: 4; fill: rgb(255,255,255); fill-rule: nonzero; opacity: 1;"  transform=" translate(-88.25, -12.32)" d="M 62.458 0.843088 L 72.7058 23.9849 L 65.8867 23.9849 L 64.0604 19.4754 L 62.16 14.6309 L 59.1789 7.21453 L 56.1977 14.6309 L 54.2973 19.4754 L 52.471 23.9849 L 45.7631 23.9849 L 56.011 0.843088 L 62.458 0.843088 Z M 42.4099 13.8112 C 43.1926 12.5437 43.6018 11.0909 43.6018 9.41432 C 43.6018 7.7377 43.1541 6.1723 42.3344 4.8678 C 41.4775 3.56331 40.2842 2.59523 38.7573 1.88669 C 37.1919 1.17814 35.3656 0.843088 33.3169 0.843088 L 22.734 0.843088 L 22.734 5.98555 L 32.9077 5.98555 C 34.2122 5.98555 35.2558 6.28353 35.9629 6.87948 C 36.6344 7.47543 37.0065 8.33227 37.0065 9.37587 C 37.0065 10.4195 36.6344 11.2763 35.9629 11.8723 C 35.2544 12.4682 34.2492 12.7291 32.9077 12.7291 L 22.734 12.7291 L 22.734 23.9464 L 29.2921 23.9464 L 29.2921 17.7974 L 32.8692 17.7974 L 37.0807 23.9464 L 44.0865 23.9464 L 39.0566 16.7181 C 40.4724 16.0096 41.5901 15.0786 42.4099 13.8112 Z M 176.492 0.843088 L 170.082 0.843088 L 170.045 7.4768 L 176.455 15.2283 L 176.492 0.843088 Z M 81.3869 6.54443 C 82.3934 6.02263 83.5112 5.72465 84.7786 5.72465 C 86.9029 5.72465 88.7292 6.65565 90.219 8.44487 L 94.3934 4.68106 C 93.2757 3.30241 91.8599 2.18466 90.1449 1.43904 C 88.4312 0.693414 86.5307 0.321289 84.4065 0.321289 C 81.9471 0.321289 79.7858 0.843088 77.8483 1.88669 C 75.9478 2.93028 74.4195 4.34601 73.3018 6.13523 C 72.184 7.9986 71.6622 10.0487 71.6622 12.3584 C 71.6622 14.668 72.184 16.7552 73.3018 18.5815 C 74.4195 20.3707 75.9478 21.7864 77.8483 22.793 C 79.7487 23.8366 81.9471 24.3213 84.4065 24.3213 C 86.5307 24.3213 88.3941 23.9492 90.1449 23.2035 C 91.8215 22.4579 93.2386 21.3772 94.3934 19.9615 L 90.219 16.1977 C 88.6907 18.024 86.8644 18.9179 84.7786 18.9179 C 83.5112 18.9179 82.3934 18.657 81.3869 18.0982 C 80.3804 17.5764 79.6348 16.7937 79.1143 15.7871 C 78.5939 14.7806 78.3316 13.6258 78.3316 12.3213 C 78.3316 11.0168 78.5925 9.86197 79.1143 8.89252 C 79.6361 7.886 80.4188 7.1033 81.3869 6.54443 Z M 0 6.02263 L 7.11844 6.02263 L 7.11844 23.9849 L 13.6766 23.9849 L 13.6766 6.02263 L 20.7566 6.02263 L 20.7566 0.843088 L 0 0.843088 L 0 6.02263 Z M 154.505 23.9849 L 160.915 23.9849 L 160.952 17.0532 L 154.542 8.89252 L 154.505 23.9849 Z M 136.356 0.843088 L 126.145 23.9849 L 132.816 23.9849 L 134.642 19.4754 L 136.542 14.6309 L 139.524 7.21453 L 142.505 14.6309 L 144.405 19.4754 L 146.231 23.9849 L 153.05 23.9849 L 142.803 0.843088 L 136.356 0.843088 Z M 170.082 13.1781 L 159.871 0.843088 L 154.468 0.843088 L 154.468 3.93543 L 160.877 11.6869 L 171.088 24.0219 L 176.492 24.0219 L 176.492 21.3388 L 170.082 13.1781 Z M 118.133 23.9849 L 124.691 23.9849 L 124.691 0.843088 L 118.133 0.843088 L 118.133 23.9849 Z M 95.437 6.02263 L 102.518 6.02263 L 102.518 23.9849 L 109.077 23.9849 L 109.077 6.02263 L 116.157 6.02263 L 116.157 0.843088 L 95.437 0.843088 L 95.437 6.02263 Z" stroke-linecap="round" />
</g>
</svg>